<svg width="17" height="17" viewBox="0 0 17 17" fill="none" xmlns="http://www.w3.org/2000/svg">
<path d="M0.39075 3.56924H0.393751C0.39381 3.71863 0.45282 3.86196 0.55796 3.96808C0.663099 4.0742 0.805871 4.13455 0.95525 4.13599V4.1365H16.045V4.13624C16.195 4.13558 16.3386 4.07556 16.4444 3.96931C16.5502 3.86305 16.6097 3.71921 16.6098 3.56924H16.6122V0.954495C16.612 0.804224 16.5521 0.660199 16.4458 0.554035C16.3394 0.447871 16.1953 0.388244 16.045 0.388245H0.95525C0.804827 0.388311 0.660583 0.448096 0.554217 0.554461C0.447852 0.660827 0.388067 0.805071 0.388 0.955495C0.388 0.965245 0.3905 0.974495 0.391 0.984245L0.39075 3.56924Z" fill="black"/>
<path d="M16.0448 6.62601H0.95525C0.804827 6.62607 0.660583 6.68586 0.554217 6.79222C0.447852 6.89859 0.388067 7.04283 0.388 7.19326C0.388 7.20301 0.3905 7.21226 0.391 7.22201V9.80701H0.394001C0.394059 9.95639 0.45307 10.0997 0.558209 10.2058C0.663349 10.312 0.806121 10.3723 0.955501 10.3738V10.3743H16.0452V10.374C16.1952 10.3733 16.3388 10.3133 16.4447 10.2071C16.5505 10.1008 16.6099 9.95698 16.61 9.80701H16.6125V7.19226C16.612 7.04196 16.552 6.89797 16.4456 6.79184C16.3392 6.6857 16.195 6.62607 16.0448 6.62601V6.62601Z" fill="black"/>
<path d="M16.0448 12.8635H0.95525C0.804827 12.8636 0.660583 12.9233 0.554217 13.0297C0.447852 13.1361 0.388067 13.2803 0.388 13.4307C0.388 13.4405 0.3905 13.4497 0.391 13.4595V16.0445H0.394001C0.394059 16.1939 0.45307 16.3372 0.558209 16.4433C0.663349 16.5495 0.806121 16.6098 0.955501 16.6112V16.6117H16.0452V16.6115C16.1952 16.6108 16.3388 16.5507 16.4447 16.4444C16.5505 16.3381 16.6099 16.1942 16.61 16.0442H16.6125V13.4295C16.612 13.2792 16.5519 13.1353 16.4455 13.0292C16.3391 12.9232 16.195 12.8636 16.0448 12.8635Z" fill="black"/>
</svg>
